<?xml version="1.0" encoding="UTF-8"?>
<!DOCTYPE svg PUBLIC "-//W3C//DTD SVG 1.1//EN" "http://www.w3.org/Graphics/SVG/1.1/DTD/svg11.dtd">
<svg version="1.2" width="500" height="500" viewBox="0 0 30480 30480" xmlns="http://www.w3.org/2000/svg">
    <style>
    tspan {
        font-family: Liberation Sans, Calibri, sans-serif;
        font-size: 2822px;
        font-weight: 800;
    }
    </style>
    <g>
        <path fill="#ff0082" d="M 27941,15241 C 27941,17470 27354,19660 26239,21591 25125,23521 23521,25125 21591,26239 19660,27354 17470,27941 15241,27941 13011,27941 10821,27354 8890,26239 6960,25125 5356,23521 4242,21591 3127,19660 2540,17470 2540,15241 2540,13011 3127,10821 4242,8890 5356,6960 6960,5356 8890,4242 10821,3127 13011,2540 15240,2540 17470,2540 19660,3127 21591,4242 23521,5356 25125,6960 26239,8890 27354,10821 27941,13011 27941,15240 L 27941,15241 Z"/>
        <path fill="#000000" d="M 9215,22618 L 9212,22616 C 9608,22940 10031,23232 10478,23490 11889,24305 13485,24744 15113,24765 L 15113,27940 15367,27940 15367,24765 C 16396,24752 17412,24572 18377,24235 L 19463,27218 19702,27131 18616,24148 C 19094,23967 19558,23747 20003,23490 20450,23232 20873,22940 21269,22616 L 21266,22618 23306,25050 23501,24887 21460,22455 C 22266,21761 22953,20933 23490,20004 23491,20001 23493,19998 23495,19995 L 26245,21579 26399,21304 26545,21026 26685,20744 26818,20459 26944,20171 27062,19879 27174,19585 27278,19288 27374,18988 27463,18687 27545,18383 27619,18077 27686,17770 27744,17460 27796,17150 27839,16838 27875,16526 27903,16212 27923,15898 27935,15584 27940,15269 27937,14955 27926,14640 27907,14326 27881,14013 27846,13700 27804,13388 27755,13078 27697,12768 27632,12460 27559,12154 27479,11850 27391,11548 27296,11248 27194,10951 27084,10656 26967,10364 26842,10075 26711,9789 26572,9506 26427,9227 26274,8952 26115,8681 25949,8413 25777,8150 25598,7891 25413,7637 25221,7387 25024,7143 24820,6903 24611,6668 24395,6438 24176,6215 24175,6214 24174,6214 23948,5996 23717,5783 23480,5576 23238,5375 22995,5183 22991,5179 22986,5176 C 22989,5178 22992,5180 22995,5183 23410,5502 23803,5846 24174,6214 24175,6214 24175,6215 24176,6215 24976,7008 25671,7907 26239,8891 27354,10821 27941,13011 27941,15241 27941,17470 27354,19660 26239,21591 25125,23522 23521,25125 21591,26240 19660,27354 17470,27941 15241,27941 13796,27941 12367,27695 11016,27218 L 12101,24235 11862,24149 10776,27131 C 10127,26887 9496,26589 8890,26240 8218,25852 7586,25405 7001,24905 6993,24899 6986,24893 6979,24887 L 7001,24905 7174,25050 9215,22618 Z M 9020,22455 L 6979,24887 C 5891,23955 4964,22842 4242,21591 3977,21132 3742,20659 3537,20174 L 3663,20461 3796,20746 3936,21028 4083,21306 4236,21581 6987,19996 C 6988,19999 6990,20001 6991,20004 7533,20943 8230,21779 9047,22478 L 9020,22455 Z M 22739,4991 L 22984,5174 C 22542,4834 22077,4522 21591,4242 21351,4104 21107,3973 20860,3851 L 21139,3993 21415,4143 21688,4299 21957,4462 22222,4632 22483,4808 22739,4991 Z M 20858,3850 L 20856,3849 C 20857,3850 20859,3851 20860,3851 L 20858,3850 Z M 20574,3715 L 20287,3586 19997,3465 19719,3356 19704,3350 19683,3343 C 19695,3347 19707,3352 19719,3356 20105,3502 20484,3666 20856,3849 L 20574,3715 Z M 17275,2704 L 17280,2705 C 17277,2705 17274,2704 17270,2704 L 17275,2704 Z M 16964,2658 L 16652,2619 16339,2588 16051,2566 16025,2564 15997,2563 C 16015,2564 16033,2565 16051,2566 16458,2592 16862,2638 17262,2702 L 16964,2658 Z M 14140,2588 L 14139,2588 14138,2588 13836,2618 C 13937,2607 14037,2597 14138,2588 14138,2588 14139,2588 14140,2588 14229,2580 14317,2574 14405,2568 L 14140,2588 Z M 13515,2658 L 13514,2658 13511,2659 13253,2697 C 13339,2683 13425,2670 13511,2659 13513,2658 13514,2658 13515,2658 13617,2644 13718,2631 13820,2620 L 13515,2658 Z M 7244,5374 L 7241,5376 7237,5380 7016,5563 C 7089,5501 7162,5440 7237,5380 7239,5378 7242,5376 7244,5374 7316,5315 7389,5258 7462,5201 L 7244,5374 Z M 2540,15261 C 2540,15254 2540,15248 2540,15241 2540,15152 2541,15062 2543,14973 L 2540,15261 Z M 2736,17463 L 2737,17467 2795,17771 2795,17772 2795,17774 2854,18049 C 2834,17957 2814,17866 2795,17774 2795,17773 2795,17772 2795,17771 2774,17670 2755,17569 2737,17467 2736,17465 2736,17463 2736,17461 L 2736,17463 Z M 3536,20171 L 3537,20173 3537,20174 C 3537,20173 3536,20172 3536,20171 3498,20082 3462,19992 3426,19902 L 3536,20171 Z"/>
        <path fill="#000000" d="M 15240,5714 L 15113,5714 15113,2539 15367,2539 15367,5714 15240,5714 Z"/>
        <path fill="#000000" d="M 18497,6288 L 18378,6245 19464,3261 19703,3348 18617,6331 18497,6288 Z"/>
        <path fill="#000000" d="M 21362,7943 L 21265,7861 23306,5429 23501,5592 21460,8024 21362,7943 Z"/>
        <path fill="#000000" d="M 23489,10476 L 23425,10367 26175,8779 26302,8999 23552,10586 23489,10476 Z"/>
        <path fill="#000000" d="M 24620,13585 L 24598,13460 27725,12909 27769,13159 24642,13710 24620,13585 Z"/>
        <path fill="#000000" d="M 24620,16894 L 24642,16769 27769,17320 27725,17570 24598,17019 24620,16894 Z"/>
        <path fill="#000000" d="M 5859,16894 L 5881,17019 2754,17570 2710,17320 5837,16769 5859,16894 Z"/>
        <path fill="#000000" d="M 5859,13585 L 5837,13710 2710,13159 2754,12909 5881,13460 5859,13585 Z"/>
        <path fill="#000000" d="M 6990,10478 L 6927,10587 4177,9000 4304,8780 7054,10368 6990,10478 Z"/>
        <path fill="#000000" d="M 9116,7943 L 9019,8024 6978,5592 7173,5429 9213,7861 9116,7943 Z"/>
        <path fill="#000000" d="M 11982,6288 L 11863,6332 10777,3348 11016,3261 12102,6245 11982,6288 Z"/>
    </g>
    <g>
        <text transform="rotate(-110 6094 19404)"><tspan x="6094" y="19404" fill="#000000">1</tspan></text>
        <text transform="rotate(-90 5222 16025)"><tspan x="5222" y="16025" fill="#000000">2</tspan></text>
        <text transform="rotate(-70 5557 12551)"><tspan x="5557" y="12551" fill="#000000">3</tspan></text>
        <text transform="rotate(-50 7061 9402)"><tspan x="7061" y="9402" fill="#000000">4</tspan></text>
        <text transform="rotate(-30 9551 6957)"><tspan x="9551" y="6957" fill="#000000">5</tspan></text>
        <text transform="rotate(-10 12728 5511)"><tspan x="12728" y="5511" fill="#000000">6</tspan></text>
        <text transform="rotate(10 16206 5238)"><tspan x="16206" y="5238" fill="#000000">7</tspan></text>
        <text transform="rotate(30 19569 6172)"><tspan x="19569" y="6172" fill="#000000">8</tspan></text>
        <text transform="rotate(50 22409 8199)"><tspan x="22409" y="8199" fill="#000000">9</tspan></text>
        <text transform="rotate(70 24117 10338)"><tspan x="24117" y="10338" fill="#000000">10</tspan></text>
        <text transform="rotate(90 25258 13776)"><tspan x="25258" y="13776" fill="#000000">11</tspan></text>
        <text transform="rotate(110 25191 17191)"><tspan x="25191" y="17191" fill="#000000">12</tspan></text>
    </g>
    <g>
        <text transform="rotate(50 5055 21737)"><tspan x="5055" y="21737" fill="#ff0082">22</tspan></text>
        <text transform="rotate(30 7891 24828)"><tspan x="7891" y="24828" fill="#ff0082">23</tspan></text>
        <text transform="rotate(10 11614 26763)"><tspan x="11614" y="26763" fill="#ff0082">24</tspan></text>
        <text transform="rotate(-10 15774 27309)"><tspan x="15774" y="27309" fill="#ff0082">25</tspan></text>
        <text transform="rotate(-30 19869 26398)"><tspan x="19869" y="26398" fill="#ff0082">26</tspan></text>
        <text transform="rotate(-50 23407 24142)"><tspan x="23407" y="24142" fill="#ff0082">27</tspan></text>
    </g>
    <g>
        <text text-anchor="middle">
            <tspan style="font-weight: 900; font-size: 2200px" x="15240" y="14643" fill="#000000">DAUERHAFTES</tspan>
            <tspan style="font-weight: 900; font-size: 2200px" x="15240" y="17797" fill="#000000">PROVISORIUM</tspan>
        </text>
    </g>
</svg>